<svg xmlns="http://www.w3.org/2000/svg" viewBox="0 0 1016 282" role="img" aria-labelledby="emberpath-logo-on-light-title emberpath-logo-on-light-desc">
  <title id="emberpath-logo-on-light-title">Emberpath</title>
  <desc id="emberpath-logo-on-light-desc">Dark ember-orange symbol and onyx outlined wordmark for light surfaces.</desc>
<g transform="translate(18 14)"><path fill="#C34E10" fill-rule="evenodd" d="M107 0 C138 16 157 48 140 75 C124 100 66 121 48 151 C33 175 34 198 45 220 C16 207 -2 182 1 155 C5 124 41 99 71 74 C96 54 112 31 107 0 Z M163 64 C194 93 213 136 198 172 C185 205 137 233 98 253 C76 230 74 211 80 190 C86 164 108 149 135 129 C155 113 168 88 163 64 Z"/></g>
<g transform="translate(256 86)"><path fill="#111113" fill-rule="evenodd" d="M214 59.5 L214 6 L223.5 6 L233 6 L233 25 L233 44 L240.5 40 Q248 36 255.5 35.5 Q263 35 271 37.5 Q279 40 285.5 46.5 Q292 53 294.5 59.5 Q297 66 297 75 Q297 84 293.5 92 Q290 100 284.5 105 Q279 110 272 112.5 Q265 115 257.5 115 Q250 115 244 112.5 Q238 110 235.5 107.5 L233 105 L233 109 L233 113 L223.5 113 L214 113 L214 59.5 Z M660 59.5 L660 6 L670 6 L680 6 L680 25.5 L680 45 L686 41 Q692 37 699.5 36.5 Q707 36 713.5 38.5 Q720 41 723 44 Q726 47 729 55.5 Q732 64 732 88.5 L732 113 L722 113 L712 113 L712 90 Q712 67 710.5 63.5 Q709 60 704.5 57.5 Q700 55 694.5 55.5 Q689 56 684.5 61.5 Q680 67 680 90 L680 113 L670 113 L660 113 L660 59.5 Z M9 60.5 L9 8 L45.5 8 L82 8 L82 17.5 L82 27 L55.5 27 L29 27 L29 39 L29 51 L51 51 L73 51 L73 60.5 L73 70 L51 70 L29 70 L29 82 L29 94 L55.5 94 L82 94 L82 103.5 L82 113 L45.5 113 L9 113 L9 60.5 Z M613 52.5 L613 14 L623 14 L633 14 L633 26 L633 38 L642.5 38 L652 38 L652 47 L652 56 L642.5 56 L633 56 L633 72.5 Q633 89 635.5 92.5 Q638 96 645 95.5 L652 95 L652 104.5 L652 114 L644 114.5 Q636 115 632 114 Q628 113 623 109 Q618 105 616.5 102 Q615 99 614 95 Q613 91 613 52.5 Z M330 37.5 Q338 35 348 36 Q358 37 363.5 40 Q369 43 374 49 Q379 55 381 61 Q383 67 383 74.5 L383 82 L353 82 L323 82 L324.5 86 Q326 90 332.5 94 Q339 98 346 97.5 Q353 97 357.5 93 Q362 89 371 91.5 L380 94 L374.5 101 Q369 108 363 111 Q357 114 346 114.5 Q335 115 327.5 112 Q320 109 314.5 103.5 Q309 98 306.5 92.5 Q304 87 303.5 77 Q303 67 305.5 60.5 Q308 54 315 47 Q322 40 330 37.5 Z M120 38 Q125 36 132 36.5 Q139 37 142 38.5 Q145 40 148 44 L151 48 L155 44.5 Q159 41 165.5 38.5 Q172 36 177 36 Q182 36 187.5 38 Q193 40 196.5 43.5 Q200 47 202.5 53.5 Q205 60 205.5 86.5 L206 113 L196 113 L186 113 L186 89.5 Q186 66 185 63.5 Q184 61 180 58 Q176 55 170 56 Q164 57 161 61 Q158 65 158 89 L158 113 L148 113 L138 113 L138 89.5 Q138 66 137 63.5 Q136 61 131.5 58 Q127 55 121.5 56 Q116 57 113 61 Q110 65 109.5 89 L109 113 L99.5 113 L90 113 L90 75 L90 37 L99.5 37 L109 37 L109.5 41.5 L110 46 L112.5 43 Q115 40 120 38 Z M419.5 37.5 Q423 36 429.5 36 L436 36 L436 45.5 L436 55 L427.5 56 Q419 57 415 61 Q411 65 410 69 Q409 73 409 93 L409 113 L399.5 113 L390 113 L390 75 L390 37 L399.5 37 L409 37 L409.5 41.5 L410 46 L413 42.5 Q416 39 419.5 37.5 Z M471.5 38.5 Q478 36 487 36.5 Q496 37 504.5 42.5 Q513 48 516.5 54 Q520 60 521.5 66 Q523 72 521.5 82 Q520 92 514 100 Q508 108 502 111 Q496 114 486 114.5 Q476 115 468.5 111 L461 107 L461 124.5 L461 142 L451.5 142.5 L442 143 L441.5 90 L441 37 L450.5 37 L460 37 L460 41 L460 45 L461 45 Q462 45 463.5 43 Q465 41 471.5 38.5 Z M549.5 38.5 Q556 36 565.5 36.5 Q575 37 580.5 41 L586 45 L586.5 41 L587 37 L596.5 37 L606 37 L606 75 L606 113 L596.5 113 L587 113 L586.5 109 L586 105 L584 107.5 Q582 110 577.5 112 Q573 114 563 114 Q553 114 547 111 Q541 108 536 102.5 Q531 97 528.5 90.5 Q526 84 526 75.5 Q526 67 528 61 Q530 55 536.5 48 Q543 41 549.5 38.5 Z M347.5 53.5 Q340 52 335 54 Q330 56 326.5 61.5 L323 67 L343 67 L363 67 L362 64 Q361 61 358 58 Q355 55 347.5 53.5 Z M261.5 54.5 Q255 53 248.5 55 Q242 57 239 60 Q236 63 234.5 71 Q233 79 234.5 83 Q236 87 240.5 91 Q245 95 253 96 Q261 97 265.5 95 Q270 93 273 89.5 Q276 86 277 78 Q278 70 275.5 65 Q273 60 270.5 58 Q268 56 261.5 54.5 Z M486.5 55.5 Q479 54 473.5 56 Q468 58 466 60 Q464 62 462 67 Q460 72 460 75.5 Q460 79 463.5 85.5 Q467 92 472 94.5 Q477 97 482 97 Q487 97 492 94.5 Q497 92 499 89.5 Q501 87 502 78 Q503 69 498.5 63 Q494 57 486.5 55.5 Z M570 55.5 Q562 54 558 55.5 Q554 57 550.5 60.5 Q547 64 546 72.5 Q545 81 549 87 Q553 93 559 95 Q565 97 569 96.5 Q573 96 578.5 92 Q584 88 585.5 85 Q587 82 587 75.5 Q587 69 582.5 63 Q578 57 570 55.5 Z"/></g>
</svg>
